<svg xmlns="http://www.w3.org/2000/svg" viewBox="0 0 64 64"><defs><linearGradient id="gold" x2=".7" y2="1"><stop stop-color="#f8d687"/><stop offset="1" stop-color="#cd8b43"/></linearGradient><linearGradient id="wood" x2=".7" y2="1"><stop stop-color="#d9a468"/><stop offset="1" stop-color="#99643c"/></linearGradient><linearGradient id="stone" x2=".7" y2="1"><stop stop-color="#b9d1d3"/><stop offset="1" stop-color="#698690"/></linearGradient><linearGradient id="linen" x2=".7" y2="1"><stop stop-color="#fff0c8"/><stop offset="1" stop-color="#d5b47c"/></linearGradient><linearGradient id="clay" x2=".7" y2="1"><stop stop-color="#ecb38a"/><stop offset="1" stop-color="#c77556"/></linearGradient><linearGradient id="teal" x2=".7" y2="1"><stop stop-color="#65c5bc"/><stop offset="1" stop-color="#367586"/></linearGradient></defs><ellipse cx="33" cy="57" rx="23" ry="4" fill="#142f35" opacity=".2"/><g stroke="#4e4a3b" stroke-width="1.1" stroke-linejoin="round" stroke-linecap="round"><path d="m9 25 12-14h24l12 14-24 33Z" fill="url(#teal)"/><path d="m9 25 24 33-9-33 9-14 10 14-10 33 24-33Z" fill="#94e4d6"/><path d="m9 25 15 0 9-14 10 14h14M24 25h19" fill="none" stroke="#d7fff1"/><path d="m49 5 2 5 5 2-5 2-2 5-2-5-5-2 5-2Z" fill="#ffe3a0"/></g></svg>