<svg xmlns="http://www.w3.org/2000/svg" viewBox="0 0 64 64"><defs><linearGradient id="gold" x2=".7" y2="1"><stop stop-color="#f8d687"/><stop offset="1" stop-color="#cd8b43"/></linearGradient><linearGradient id="wood" x2=".7" y2="1"><stop stop-color="#d9a468"/><stop offset="1" stop-color="#99643c"/></linearGradient><linearGradient id="stone" x2=".7" y2="1"><stop stop-color="#b9d1d3"/><stop offset="1" stop-color="#698690"/></linearGradient><linearGradient id="linen" x2=".7" y2="1"><stop stop-color="#fff0c8"/><stop offset="1" stop-color="#d5b47c"/></linearGradient><linearGradient id="clay" x2=".7" y2="1"><stop stop-color="#ecb38a"/><stop offset="1" stop-color="#c77556"/></linearGradient><linearGradient id="teal" x2=".7" y2="1"><stop stop-color="#65c5bc"/><stop offset="1" stop-color="#367586"/></linearGradient></defs><ellipse cx="33" cy="57" rx="23" ry="4" fill="#142f35" opacity=".2"/><g stroke="#4e4a3b" stroke-width="1.1" stroke-linejoin="round" stroke-linecap="round"><path d="M25 54Q36 35 37 12M33 40Q20 37 21 27Q33 28 33 40M37 30Q25 25 28 17Q38 21 37 30M36 34Q49 31 49 22Q38 24 36 34M31 46Q45 46 47 35Q35 35 31 46" fill="url(#gold)"/><path d="m22 49 13 5m-12-8 13 5" stroke="#f5e4ac"/></g></svg>